<svg width="228" height="40" viewBox="0 0 228 40" fill="none" xmlns="http://www.w3.org/2000/svg">
<g clip-path="url(#clip0_6127_5216)">
<path d="M55.4976 12.639H62.0683C63.7659 12.639 65.0146 13.0927 65.8049 13.8829C66.4829 14.561 66.8244 15.3561 66.8244 16.3756V16.4878C66.8244 18.1854 65.9171 19.0927 64.8976 19.6585C66.5951 20.3366 67.6146 21.3561 67.6146 23.2829V23.3951C67.6146 26.1122 65.4634 27.4732 62.2927 27.4732H55.4976V12.6342M61.3902 18.639C62.8634 18.639 63.6537 18.0732 63.6537 17.0537V16.9415C63.6537 16.0342 62.9756 15.4683 61.6146 15.4683H58.5561V18.639H61.3854H61.3902ZM62.2927 24.5317C63.6537 24.5317 64.4439 24.0781 64.4439 22.9464C64.4439 21.9268 63.7658 21.361 62.1805 21.361H58.5561V24.5317H62.2927Z" fill="white"/>
<path d="M70.1074 12.639H73.283V24.4195H80.4147V27.4732H70.1074V12.639Z" fill="white"/>
<path d="M87.8926 12.5269H90.7219L96.8389 27.4781H93.556L92.3121 24.0781H86.195L84.9511 27.4781H81.7804L87.8975 12.5269M91.1755 21.2439L89.2487 16.3756L87.3219 21.2439H91.1706H91.1755Z" fill="white"/>
<path d="M97.2925 19.9999C97.2925 15.8097 100.351 12.2975 104.654 12.2975C107.371 12.2975 108.956 13.317 110.317 14.678L108.278 17.0585C107.258 16.0389 106.127 15.3609 104.654 15.3609C102.273 15.3609 100.575 17.3999 100.575 20.0048C100.575 22.6097 102.161 24.6487 104.654 24.6487C106.239 24.6487 107.258 23.9707 108.39 22.9511L110.429 25.1024C108.956 26.6877 107.258 27.7072 104.541 27.7072C100.351 27.7072 97.2925 24.3072 97.2925 20.0048" fill="white"/>
<path d="M112.468 12.639H115.639V19.0927L121.415 12.639H125.268L119.381 18.8683L125.493 27.4732H121.756L117.341 21.1317L115.639 22.9464V27.4732H112.468V12.639Z" fill="white"/>
<path d="M138.068 25.4341C136.937 26.3415 135.688 26.9073 134.22 26.9073C131.727 26.9073 129.8 25.4341 129.8 22.9415C129.8 21.2439 130.707 19.9951 132.293 19.2049C131.727 18.2976 131.386 17.3951 131.386 16.4878V16.3756C131.386 14.5659 132.859 12.7512 135.351 12.7512C137.615 12.7512 139.088 14.3366 139.088 16.2634C139.088 18.1902 137.956 19.2098 136.371 19.8878L138.068 21.6976C138.522 21.0195 138.976 20.2244 139.312 19.3171L141.464 20.561C141.01 21.5805 140.444 22.6 139.766 23.5073L141.693 25.4341L139.542 27.0195L138.068 25.4341ZM136.483 23.7366L133.878 21.0195C133.083 21.4732 132.747 22.1512 132.747 22.8293C132.747 23.8488 133.425 24.5268 134.556 24.5268C135.234 24.5268 135.8 24.1854 136.483 23.7317V23.7366ZM136.595 16.4878C136.595 15.6927 136.029 15.1268 135.351 15.1268C134.556 15.1268 134.107 15.6927 134.107 16.6C134.107 17.1659 134.332 17.6195 134.786 18.2976C136.029 17.8439 136.595 17.278 136.595 16.4878Z" fill="white"/>
<path d="M144.634 12.639H148.146L151.883 23.0586L155.619 12.639H158.907L153.244 27.5903H150.41L144.634 12.639Z" fill="white"/>
<path d="M160.834 12.639H171.59V15.4683H163.888V18.5268H170.688V21.361H163.888V24.5317H171.708V27.4732H160.834V12.639Z" fill="white"/>
<path d="M179.293 12.5269H182.239L188.356 27.4781H185.073L183.712 24.0781H177.707L176.346 27.4781H173.176L179.293 12.5269ZM182.581 21.2439L180.771 16.3756L178.844 21.2439H182.581Z" fill="white"/>
<path d="M191.751 15.5805H187.336V12.639H199.229V15.5805H194.81V27.4732H191.751V15.5805Z" fill="white"/>
<path d="M200.019 19.9999C200.019 15.8097 203.078 12.2975 207.38 12.2975C210.097 12.2975 211.683 13.317 213.044 14.678L211.005 17.0585C209.985 16.0389 208.853 15.3609 207.38 15.3609C205 15.3609 203.302 17.3999 203.302 20.0048C203.302 22.6097 205 24.6487 207.38 24.6487C209.078 24.6487 209.985 23.9707 211.117 22.9511L213.156 25.1024C211.683 26.6877 210.097 27.7072 207.268 27.7072C203.078 27.7072 200.019 24.3072 200.019 20.0048" fill="white"/>
<path d="M215.312 12.639H218.371V18.4146H224.146V12.639H227.317V27.4732H224.146V21.4732H218.371V27.4732H215.312V12.639Z" fill="white"/>
<path d="M0 2.31707C0 1.09756 0.97561 0 2.31707 0H42.0732C43.4146 0 44.3902 1.09756 44.3902 2.31707V37.6829C44.3902 39.0244 43.4146 40 42.0732 40H2.31707C0.97561 40 0 39.0244 0 37.6829V2.31707Z" fill="#004A98"/>
<path d="M12.8146 17.1659H22.5122C23.2195 17.1659 23.7902 17.8244 23.7902 18.6391C23.7902 19.4537 23.2146 20.1122 22.5122 20.1122H14.8829L22.3219 33.161H30.8585L40.8585 18.5269H34.639L27.078 29.3805C24.2049 24.0732 23.9366 23.5757 23.9073 23.5317H26.2244C28.9707 23.5317 30.5707 21.6098 30.7171 19.2586C30.8097 17.9025 30.2683 16.6927 29.3268 15.9122C30.2683 15.1269 30.8049 13.922 30.7171 12.5659C30.5658 10.2147 28.9707 8.29272 26.2244 8.29272H6.70731V23.5317H14.6341L12.8049 20.1171V17.1903M12.8146 14.1854V11.2391H22.5122C23.2195 11.2391 23.7902 11.8976 23.7902 12.7122C23.7902 13.5269 23.2146 14.1854 22.5122 14.1854H12.8146Z" fill="white"/>
<path d="M47.8047 40.0049C48.8925 40.0049 49.756 39.1414 49.756 38.0488C49.756 36.9561 48.8925 36.0975 47.8047 36.0975C46.7169 36.0975 45.8584 36.9658 45.8584 38.0488C45.8584 39.1317 46.7121 40.0049 47.8047 40.0049ZM47.8047 39.7122C46.9121 39.7122 46.1413 38.9756 46.1413 38.0536C46.1413 37.1317 46.9072 36.4049 47.8047 36.4049C48.7023 36.4049 49.4535 37.1366 49.4535 38.0536C49.4535 38.9707 48.6974 39.7122 47.8047 39.7122ZM48.0925 38.1219C48.4779 38.1122 48.7657 37.9561 48.7657 37.5366C48.7657 37.0829 48.395 36.9805 48.0096 36.9805H47.0779V39.117H47.3755V38.1268H47.7364L48.3755 39.117H48.7316L48.0877 38.1268L48.0925 38.1219ZM47.3755 37.8195V37.2634H47.9462C48.1755 37.2634 48.4682 37.3024 48.4682 37.5219C48.4682 37.8634 48.0047 37.8146 47.7364 37.8146H47.3755V37.8195Z" fill="white"/>
</g>
<defs>
<clipPath id="clip0_6127_5216">
<rect width="227.317" height="40" fill="white"/>
</clipPath>
</defs>
</svg>
