<?xml version="1.0" encoding="utf-8"?>
<!-- Generator: Adobe Illustrator 22.0.1, SVG Export Plug-In . SVG Version: 6.00 Build 0)  -->
<svg version="1.1" xmlns="http://www.w3.org/2000/svg" xmlns:xlink="http://www.w3.org/1999/xlink" x="0px" y="0px"
	 viewBox="0 0 206.8 39.2" style="enable-background:new 0 0 206.8 39.2;" xml:space="preserve">
<style type="text/css">
	.st0{fill:#FFFFFF;}
</style>
<g id="Layer_2">
</g>
<g id="Layer_1">
	<g>
		<g>
			<g>
				<path class="st0" d="M1.8,19.4c0-9.2,7.5-16.7,16.7-16.7l0,0v0.6v0.6C9.9,4,3,10.9,3,19.4l0,0c0,8.5,6.9,15.4,15.4,15.4l0,0
					c8.5,0,15.4-6.9,15.4-15.4l0,0C33.9,10.9,27,4,18.5,3.9l0,0V3.3V2.7c9.2,0,16.7,7.5,16.7,16.7l0,0c0,9.2-7.5,16.7-16.7,16.7l0,0
					C9.2,36.1,1.8,28.6,1.8,19.4L1.8,19.4z"/>
			</g>
			<path class="st0" d="M22.7,19.4L22.7,19.4c7.8-1,5.4-6.7,5.4-6.7c-0.6-0.9-1.1-0.5-1.1-0.5c-0.2,0.1-0.8,0.3-1.2-0.1
				c-0.4-0.4-0.1-0.9-0.1-0.9c0.4-0.9-0.4-1.3-0.4-1.3c-6-2.6-6.8,5.3-6.8,5.3l0,0c0,0-0.8-7.9-6.8-5.3c0,0-0.8,0.4-0.4,1.3
				c0,0,0.2,0.6-0.1,0.9c-0.4,0.4-0.9,0.2-1.2,0.1c0,0-0.5-0.4-1.1,0.5c0,0-2.5,5.6,5.4,6.7l0,0c-7.8,1-5.4,6.7-5.4,6.7
				c0.6,0.9,1.1,0.5,1.1,0.5c0.2-0.1,0.8-0.3,1.2,0.1c0.4,0.4,0.1,0.9,0.1,0.9c-0.4,0.9,0.4,1.3,0.4,1.3c6,2.6,6.8-5.3,6.8-5.3l0,0
				c0,0,0.8,7.9,6.8,5.3c0,0,0.8-0.4,0.4-1.3c0,0-0.2-0.6,0.1-0.9c0.4-0.4,0.9-0.2,1.2-0.1c0,0,0.5,0.4,1.1-0.5
				C28.1,26,30.5,20.4,22.7,19.4z M16.9,20.8c-0.3,0-0.6-0.3-0.6-0.6c0-0.3,0.3-0.6,0.6-0.6c0.3,0,0.6,0.3,0.6,0.6
				C17.5,20.5,17.2,20.8,16.9,20.8z M17,19.1c-0.3,0-0.6-0.3-0.6-0.6c0-0.3,0.3-0.6,0.6-0.6c0.3,0,0.6,0.3,0.6,0.6
				C17.6,18.8,17.3,19.1,17,19.1z M18.5,21.9c-0.3,0-0.6-0.3-0.6-0.6c0-0.3,0.3-0.6,0.6-0.6c0.3,0,0.6,0.3,0.6,0.6
				C19.1,21.6,18.8,21.9,18.5,21.9z M18.5,20c-0.3,0-0.6-0.3-0.6-0.6c0-0.3,0.3-0.6,0.6-0.6c0.3,0,0.6,0.3,0.6,0.6
				C19.1,19.7,18.8,20,18.5,20z M18.5,18.1c-0.3,0-0.6-0.3-0.6-0.6c0-0.3,0.3-0.6,0.6-0.6c0.3,0,0.6,0.3,0.6,0.6
				C19.1,17.9,18.8,18.1,18.5,18.1z M20,20.9c-0.3,0-0.6-0.3-0.6-0.6c0-0.3,0.3-0.6,0.6-0.6c0.3,0,0.6,0.3,0.6,0.6
				C20.6,20.6,20.3,20.9,20,20.9z M20,19.1c-0.3,0-0.6-0.3-0.6-0.6c0-0.3,0.3-0.6,0.6-0.6c0.3,0,0.6,0.3,0.6,0.6
				C20.6,18.8,20.4,19.1,20,19.1z"/>
			<path class="st0" d="M33.1,33.8c0,0.9-0.6,1.5-1.4,1.5v0c-0.8,0-1.4-0.6-1.4-1.5c0-0.9,0.6-1.5,1.4-1.5
				C32.5,32.3,33.1,32.9,33.1,33.8 M33.7,33.8c0-1.2-0.9-1.9-1.9-1.9c-1,0-1.9,0.7-1.9,1.9c0,1.2,0.9,1.9,1.9,1.9
				C32.8,35.7,33.7,35,33.7,33.8z M31.5,33.9h0.2l0.5,0.9h0.5l-0.5-0.9c0.3,0,0.5-0.2,0.5-0.5c0-0.5-0.3-0.6-0.8-0.6H31v2h0.4V33.9z
				 M31.5,33.6v-0.5h0.3c0.2,0,0.4,0,0.4,0.2c0,0.2-0.1,0.3-0.3,0.3H31.5z"/>
		</g>
		<path class="st0" d="M59.2,16.2c-1-1.4-2.7-2.1-4.4-2.1c-3.1,0-5.2,2.4-5.2,5.4c0,3.1,2.1,5.3,5.2,5.3c1.6,0,3.3-0.8,4.3-2.1v6
			c-1.7,0.5-2.9,0.9-4.4,0.9c-2.7,0-5.3-1-7.3-2.9c-2.1-1.9-3.1-4.4-3.1-7.3c0-2.6,1-5.2,2.9-7.1c1.9-2,4.7-3.1,7.4-3.1
			c1.6,0,3.1,0.4,4.6,1V16.2z"/>
		<path class="st0" d="M64.7,20.6c0.3-1.4,1.4-2.1,2.8-2.1c1.3,0,2.4,0.8,2.6,2.1H64.7z M74.5,22.8c0-4.5-2.6-7.3-7.2-7.3
			c-4.3,0-7.3,2.6-7.3,7c0,4.5,3.3,7,7.6,7c3,0,6-1.4,6.7-4.5h-4.5c-0.5,0.9-1.2,1.2-2.2,1.2c-1.9,0-2.9-1-2.9-2.9h9.8V22.8z"/>
		<path class="st0" d="M80,17.6L80,17.6c1.1-1.6,2.4-2.1,4.3-2.1c3.5,0,5,2.2,5,5.5v8.1h-4.7v-6.4c0-1.3,0.2-3.5-2.1-3.5
			c-1.9,0-2.4,1.4-2.4,3.1v6.8h-4.7V15.9H80V17.6z"/>
		<path class="st0" d="M96.1,29.1h-4.7v-9.3H90v-3.9h1.5v-4h4.7v4h2.6v3.9h-2.6V29.1z"/>
		<path class="st0" d="M103.9,18.1L103.9,18.1c0.9-1.6,2.5-2.3,4.3-2.3h0.9v4.5c-0.6-0.4-1.3-0.4-2-0.4c-2.6,0-3.2,1.7-3.2,4v5.3
			h-4.7V15.9h4.7V18.1z"/>
		<path class="st0" d="M116.5,19.6c1.9,0,3,1.4,3,3c0,1.7-1.1,3-3,3c-1.9,0-3-1.3-3-3C113.5,20.9,114.6,19.6,116.5,19.6z M124,15.9
			h-4.7v1.3c-1-1.2-2.6-1.7-4.1-1.7c-3.9,0-6.6,3.2-6.6,7c0,3.8,2.8,7,6.7,7c1.5,0,3.2-0.6,4-1.9h0.1v1.5h4.7V15.9z"/>
		<path class="st0" d="M130.5,29.1h-4.7V7.8h4.7V29.1z"/>
		<path class="st0" d="M145,21.1h0.5c1.6,0,4.1-0.2,4.1,2.1c0,2.1-2.5,2.1-4,2.1H145V21.1z M147.7,29.1c3.5,0,7-1.3,7-5.4
			c0-2.7-1.2-4.6-4-4.9v-0.1c1.6-0.8,2.1-2.2,2.1-4c0-3.7-2.3-5-5.8-5H140v19.4H147.7z M145,13.6h0.4c1.4,0,2.9,0.1,2.9,1.9
			c0,1.6-1.4,1.9-2.7,1.9H145V13.6z"/>
		<path class="st0" d="M163.4,19.6c1.9,0,3,1.4,3,3c0,1.7-1.1,3-3,3c-1.9,0-3-1.3-3-3C160.4,20.9,161.5,19.6,163.4,19.6z
			 M170.9,15.9h-4.7v1.3c-1-1.2-2.6-1.7-4.1-1.7c-3.9,0-6.6,3.2-6.6,7c0,3.8,2.8,7,6.7,7c1.5,0,3.2-0.6,4-1.9h0.1v1.5h4.7V15.9z"/>
		<path class="st0" d="M177.4,17.6L177.4,17.6c1.1-1.6,2.4-2.1,4.3-2.1c3.5,0,5,2.2,5,5.5v8.1H182v-6.4c0-1.3,0.2-3.5-2.1-3.5
			c-1.9,0-2.4,1.4-2.4,3.1v6.8h-4.7V15.9h4.7V17.6z"/>
		<path class="st0" d="M193.1,20.7l4.9-4.8h6.4l-6.6,6.1l7,7.1h-6.6l-5.1-5.4v5.4h-4.7V7.8h4.7V20.7z"/>
	</g>
</g>
</svg>
