<?xml version="1.0" encoding="UTF-8"?>
<svg width="159px" height="39px" viewBox="0 0 159 39" version="1.1" xmlns="http://www.w3.org/2000/svg" xmlns:xlink="http://www.w3.org/1999/xlink">
    <title>4D2E2207-714C-4B7B-84FB-C6F2B0829ABD</title>
    <defs>
        <linearGradient x1="99.6995192%" y1="50%" x2="0%" y2="50%" id="linearGradient-1">
            <stop stop-color="#000000" stop-opacity="0.160128934" offset="0%"></stop>
            <stop stop-color="#000000" stop-opacity="0.377649694" offset="100%"></stop>
        </linearGradient>
    </defs>
    <g id="Page-1" stroke="none" stroke-width="1" fill="none" fill-rule="evenodd">
        <g id="Tablet(768x1013)" transform="translate(-70.000000, -31.000000)">
            <rect id="Rectangle" fill="url(#linearGradient-1)" x="-232" y="0" width="1444.14986" height="696"></rect>
            <rect id="Rectangle" fill="#000000" x="0" y="0" width="768" height="100"></rect>
            <rect id="Rectangle" fill="#FFFFFF" fill-rule="nonzero" x="161.723632" y="37.208488" width="4.348344" height="3.583008"></rect>
            <polygon id="Path" fill="#FFFFFF" fill-rule="nonzero" points="166.071976 43.386088 166.071976 60.172 161.723632 60.172 161.723632 43.382656"></polygon>
            <path d="M160.19296,43.365496 L160.19296,60.168568 L155.73136,60.172 L155.745088,58.73056 C155.745088,58.73056 155.762248,58.579552 155.67988,58.655056 C153.87808,60.082768 152.72836,60.58384 150.97804,60.58384 C149.097304,60.58384 146.4478,59.396368 145.510864,56.987104 C145.479976,56.915032 145.153936,56.20804 145.157341,55.329448 L145.157341,43.365496 L149.564056,43.365496 L149.564056,54.52636 C149.567488,54.62932 149.55376,54.73228 149.67388,55.09264 C150.178384,56.609584 151.431064,56.815504 152.426344,56.815504 C152.532736,56.815504 153.078424,56.784616 153.366712,56.715976 C154.852768,56.369344 155.703904,54.948496 155.703904,53.781616 L155.703904,43.365496 L160.19296,43.365496" id="Path" fill="#FFFFFF" fill-rule="nonzero"></path>
            <polygon id="Path" fill="#FFFFFF" fill-rule="nonzero" points="196.613344 37.208488 196.613344 41.02144 189.31348 41.02144 189.31348 60.172 184.450336 60.172 184.450336 41.062624 177.431896 41.062624 177.431896 37.208488"></polygon>
            <polygon id="Path" fill="#FFFFFF" fill-rule="nonzero" points="167.62324 37.208488 172.047088 37.208488 172.047088 49.374928 177.974152 43.365496 183.338368 43.365496 176.947984 49.632328 183.952696 60.172 178.506112 60.172 173.890072 52.614736 172.043656 54.375352 172.043656 60.172 167.62324 60.172"></polygon>
            <path d="M200.035048,42.94336 C200.14144,42.94336 200.601328,42.939928 200.920504,42.939928 L200.937664,42.946792 L200.937664,46.680808 C200.577304,46.687672 200.028184,46.725424 199.921792,46.725424 C199.8154,46.725424 199.74676,46.739152 199.18048,46.797496 C197.711584,46.951936 195.827416,48.997408 195.823984,50.363344 C195.823984,50.449144 195.83428,50.576128 195.83428,50.679088 L195.83428,60.161704 L191.451616,60.161704 L191.451616,43.368928 L195.861736,43.365496 L195.861736,45.126112 C197.107552,43.533664 198.669112,42.94336 200.035048,42.94336" id="Path" fill="#FFFFFF" fill-rule="nonzero"></path>
            <polygon id="Path" fill="#FFFFFF" fill-rule="nonzero" points="201.606904 37.208488 205.948384 37.208488 205.948384 40.791496 201.60004 40.791496"></polygon>
            <polygon id="Path" fill="#FFFFFF" fill-rule="nonzero" points="205.948384 43.368928 205.948384 60.158272 201.606904 60.158272 201.60004 43.362064"></polygon>
            <path d="M226.317304,56.311 C225.256816,56.311 224.364496,57.141544 224.364496,58.23292 C224.364496,59.344888 225.256816,60.178864 226.317304,60.178864 C227.37436,60.178864 228.259816,59.344888 228.259816,58.23292 C228.259816,57.144976 227.37436,56.311 226.317304,56.311 Z M226.317304,59.894008 C225.411256,59.894008 224.717992,59.180152 224.717992,58.236352 C224.717992,57.309712 225.411256,56.599288 226.317304,56.599288 C227.213056,56.599288 227.909752,57.313144 227.909752,58.236352 C227.909752,59.180152 227.213056,59.894008 226.317304,59.894008 Z" id="Shape" fill="#FFFFFF" fill-rule="nonzero"></path>
            <path d="M226.633048,58.373632 C226.969384,58.33588 227.230216,58.167712 227.230216,57.759304 C227.230216,57.32344 226.976248,57.114088 226.437424,57.114088 L225.562264,57.114088 L225.562264,59.372344 L225.91576,59.372344 L225.91576,58.401088 L226.289848,58.401088 L226.907608,59.372344 L227.285128,59.372344 L226.633048,58.373632 Z M226.282984,58.116232 L225.91576,58.116232 L225.91576,57.398944 L226.382512,57.398944 C226.61932,57.398944 226.880152,57.44356 226.880152,57.745576 C226.880152,58.102504 226.591864,58.116232 226.282984,58.116232 Z" id="Shape" fill="#FFFFFF" fill-rule="nonzero"></path>
            <path d="M133.13164,35.4272745 C140.13292,35.420416 144.467536,41.834824 144.467536,47.947216 C144.467536,50.3908 143.636992,54.059608 141.447376,56.462008 L143.92528,58.926184 L141.310096,61.531072 L138.688048,58.905592 C136.766128,60.178864 135.026104,60.535792 133.128208,60.535792 C127.482568,60.535792 121.87468,55.497616 121.87468,47.967808 C121.878112,41.532808 126.552496,35.434144 133.13164,35.4272745 M133.13164,39.30544 C137.637856,39.30544 139.645576,44.501488 139.645576,48.043312 C139.645576,49.563688 139.319536,51.821944 138.2968,53.27368 L138.186976,53.232496 L136.347424,51.379216 L133.752832,54.001264 C133.752832,54.001264 135.691912,55.86484 135.67132,55.892296 C135.132496,56.41396 133.814608,56.60272 133.014952,56.595856 C129.737392,56.5684 126.566224,52.879 126.566224,47.9884 C126.566224,44.542672 128.711224,39.30544 133.13164,39.30544" id="Shape" fill="#FFFFFF"></path>
            <path d="M217.304872,42.449152 C222.336184,42.449152 224.570416,47.906032 224.570416,51.57484 C224.570416,56.770888 221.114392,60.73828 217.246528,60.73828 C214.854424,60.73828 213.104104,59.60572 212.373088,58.431976 L212.366224,65.755864 L207.695272,65.752432 L207.678112,43.365496 L212.23924,43.365496 L212.228944,44.851552 C213.625768,43.128688 215.554552,42.449152 217.304872,42.449152 M212.009296,51.550816 C212.009296,48.499768 213.811096,46.028728 216.035032,46.028728 C218.258968,46.028728 220.060768,48.5032 220.060768,51.550816 C220.060768,54.601864 218.258968,57.0729076 216.035032,57.0729076 C213.811096,57.076336 212.009296,54.601864 212.009296,51.550816" id="Shape" fill="#FFFFFF"></path>
            <path d="M74.82196,31.336336 L112.237624,31.336336 C114.897424,31.336336 117.141952,33.381808 117.141952,36.038176 L117.141952,64.458568 C117.141952,67.118368 115.099912,69.160408 112.440112,69.160408 L74.61604,69.160408 C72.16216,69.160408 70.12012,67.118368 70.12012,64.458568 L70.12012,36.038176 C70.12012,33.584296 72.165592,31.336336 74.82196,31.336336" id="Path" fill="#E70D30"></path>
            <path d="M99.765736,66.411376 L102.686368,63.384352 L108.139816,63.384352 L108.139816,44.74516 L112.43668,44.74516 L112.43668,40.372792 L108.915448,37.290856 L108.822784,41.474464 L94.892296,41.474464 C94.892296,41.474464 97.57612,45.01972 97.04416,50.730568 C96.567112,55.878568 91.573552,60.676504 87.283552,61.009408 C82.859704,61.606576 79.396816,58.699672 79.396816,58.699672 C80.357776,59.403232 86.854552,68.08276 95.595856,62.378776 L99.765736,66.411376 M84.973816,56.904736 C82.519936,56.132536 80.659792,52.789768 80.659792,48.805216 C80.659792,44.872144 82.959232,40.688536 86.068624,40.688536 C89.06476,40.688536 90.499336,43.653784 90.499336,43.653784 C90.499336,43.653784 86.466736,43.708696 84.579136,48.22864 C82.705264,52.710832 84.973816,56.904736 84.973816,56.904736" id="Shape" fill="#010101"></path>
            <path d="M86.367208,53.493328 L88.992688,55.991824 C88.419544,56.462008 87.57184,57.223912 85.873,57.0832 C82.567984,56.812072 80.615176,52.590712 80.65636,48.72628 C80.697544,44.91676 82.876864,40.709128 86.102944,40.709128 C89.435416,40.709128 91.734856,44.546104 91.772608,48.582136 C91.786336,50.123104 91.693672,50.946784 91.254376,52.353904 L89.305,50.466304 L86.367208,53.493328 M99.357328,41.522512 L99.357328,60.196024 L104.618584,60.196024 L104.618584,41.522512 L108.915448,41.522512 L108.915448,37.301152 L94.579984,37.301152 L94.579984,40.856704 C92.585992,38.358208 89.644768,36.710848 86.102944,36.710848 C79.564984,36.710848 75.350488,42.339328 75.209776,48.719416 C75.058768,55.398088 79.564984,61.156984 86.102944,61.156984 C88.320016,61.156984 90.485608,60.381352 92.225632,59.12524 L96.46072,63.202456 L99.353896,60.18916 L95.091352,56.07076 C96.776464,53.9086 97.2844,52.010704 97.2844,48.719416 C97.2844,44.782912 95.098216,41.522512 95.098216,41.522512 L99.357328,41.522512 Z" id="Shape" fill="#FFFFFF"></path>
        </g>
    </g>
</svg>