<svg width="249" height="65" viewBox="0 0 249 65" fill="none" xmlns="http://www.w3.org/2000/svg">
<g id="Vector">
<path d="M206.83 17.2966L199.239 8.4619L206.302 0.528605H203.124L195.955 8.83089L195.971 0.50752H193.409L193.372 17.2755H195.934L195.944 11.7723L197.563 9.99057L203.646 17.2966H206.83ZM185.428 17.5601C188.786 17.5654 190.863 15.9893 192.228 14.0284L190.051 12.8898C189.15 14.2972 187.458 15.3251 185.433 15.3198C181.975 15.3146 179.313 12.6157 179.324 8.86779C179.335 5.09354 182.002 2.43681 185.465 2.44208C187.489 2.44208 189.181 3.48053 190.072 4.89323L192.255 3.76518C190.926 1.79899 188.828 0.212328 185.47 0.201785C180.6 0.191243 176.699 3.70192 176.688 8.85725C176.678 14.0126 180.563 17.5443 185.433 17.5549M172.561 8.85197C172.55 12.5261 170.189 15.283 166.573 15.2777C162.909 15.2671 160.606 12.4997 160.616 8.82562C160.627 5.13044 162.936 2.39464 166.599 2.39991C170.263 2.40519 172.566 5.1568 172.556 8.85197M157.975 8.82035C157.965 13.8017 161.465 17.5022 166.567 17.518C171.67 17.5285 175.186 13.8386 175.197 8.86252C175.207 3.88115 171.707 0.180699 166.604 0.164885C161.507 0.154343 157.986 3.84425 157.975 8.82035ZM154.317 5.56796C154.317 7.32857 152.978 8.50934 151.133 8.50407L146.826 8.49353L146.837 2.61076L151.144 2.62131C152.989 2.62131 154.317 3.81262 154.317 5.57323M154.085 17.1912H157.058L152.688 10.4755C154.865 10.2014 156.947 8.59895 156.953 5.5785C156.958 2.48425 154.733 0.417908 151.481 0.412637L144.28 0.396822L144.244 17.1701H146.805L146.821 10.7127H150.026L154.085 17.1912ZM139.299 17.1595H141.861L141.898 0.391551L138.234 0.381009L133.237 12.4154L128.293 0.359924L124.629 0.349381L124.592 17.1226H127.154L127.186 3.7968L132.694 17.1384H133.77L139.336 3.82316L139.304 17.1543L139.299 17.1595ZM115.062 2.52115L118.504 11.4086L111.609 11.3927L115.062 2.52115ZM120.618 17.1174H123.438L116.685 0.333567H113.48L106.654 17.0857H109.474L110.866 13.6225L119.247 13.6383L120.623 17.1121L120.618 17.1174ZM102.959 17.0805H105.521L105.558 0.312482H102.996L102.98 7.34966L93.5232 7.32857L93.539 0.286126H90.9772L90.9403 17.0541H93.5021L93.5179 9.5636L102.975 9.58468L102.959 17.0805ZM76.1806 14.6557C77.6355 16.2423 79.8653 17.3282 82.9174 17.3388C87.5297 17.3493 89.38 14.914 89.3852 12.2994C89.3905 8.73073 86.1381 7.86624 83.3496 7.12826C81.2253 6.59586 79.3803 6.1109 79.3803 4.60331C79.3803 3.19588 80.6929 2.24177 82.5905 2.24705C84.4355 2.24705 86.2277 2.85852 87.5297 4.21851L89.0215 2.36301C87.5139 0.850154 85.437 0.0172896 82.8014 0.0120183C79.238 0.00674704 76.75 2.00984 76.7447 4.77727C76.7394 8.19833 79.9127 8.98376 82.6538 9.69538C84.8308 10.2541 86.7759 10.7602 86.7759 12.5208C86.7759 13.7279 85.7955 15.109 83.0281 15.1037C80.6454 15.1037 78.8005 13.9862 77.6513 12.7264L76.1859 14.6609L76.1806 14.6557Z" fill="black"/>
<path d="M166.562 31.9033C166.552 37.1324 170.516 40.6115 175.413 40.6273C178.307 40.6326 180.668 39.4571 182.313 37.6754L182.329 31.5132L174.279 31.4974V33.7114L179.756 33.7219V36.7424C178.929 37.4962 177.31 38.3976 175.413 38.3923C171.849 38.387 169.193 35.6618 169.198 31.9139C169.208 28.1396 171.876 25.4829 175.439 25.4882C177.437 25.4882 179.155 26.4792 180.125 27.7601L182.202 26.5846C180.774 24.6975 178.649 23.2584 175.444 23.2479C170.547 23.2373 166.568 26.6742 166.557 31.9033M161.359 40.2689H163.848L163.884 23.5009H161.323L161.296 36.0676L152.019 23.4745H149.378L149.341 40.2425H151.903L151.929 27.37L161.359 40.2689ZM142.831 40.2267H145.393L145.43 23.4587H142.868L142.831 40.2267ZM127.718 37.9811L127.744 25.6305H131.281C135.303 25.6463 137.502 28.3926 137.496 31.8401C137.491 35.2348 135.203 37.9969 131.255 37.9864H127.718V37.9811ZM125.151 40.1898L131.25 40.2056C136.579 40.2162 140.127 36.7055 140.137 31.8506C140.148 27.0221 136.621 23.4429 131.287 23.4324L125.188 23.4165L125.151 40.1898ZM114.598 25.5778L118.04 34.4652L111.145 34.4494L114.598 25.5778ZM120.154 40.174H122.974L116.221 23.3902H113.016L106.19 40.1424H109.01L110.402 36.6791L118.783 36.6949L120.159 40.1687L120.154 40.174ZM102.063 28.5139C102.063 30.2745 100.724 31.4553 98.8789 31.45L94.5722 31.4395L94.5828 25.5567L98.8894 25.5672C100.734 25.5672 102.063 26.7585 102.063 28.5139ZM101.831 40.1318H104.804L100.434 33.4162C102.611 33.1421 104.693 31.5396 104.698 28.5192C104.704 25.4249 102.479 23.3586 99.2268 23.3533L92.0262 23.3375L91.9893 40.1107H94.5511L94.5669 33.6534H97.7719L101.831 40.1318ZM81.3518 40.0844H83.9137L83.9453 25.5303L89.2271 25.5409V23.3269L76.0858 23.3006V25.5145L81.3835 25.5251L81.3518 40.0844Z" fill="black"/>
<path d="M246.475 64.1373H248.963L249 47.3693H246.438L246.412 59.9361L237.134 47.3429H234.493L234.456 64.1109H237.018L237.045 51.2384L246.475 64.1373ZM229.117 55.7243C229.106 59.3931 226.745 62.1553 223.134 62.15C219.47 62.1395 217.167 59.372 217.177 55.6979C217.188 52.0028 219.497 49.267 223.165 49.2722C226.781 49.2828 229.132 52.0291 229.122 55.7243M214.542 55.6927C214.531 60.674 218.031 64.3745 223.134 64.3903C228.231 64.4008 231.752 60.7109 231.763 55.7348C231.773 50.7535 228.273 47.053 223.171 47.0372C218.068 47.0267 214.552 50.7166 214.542 55.6927ZM208.733 64.0529H211.294L211.331 47.285H208.769L208.733 64.0529ZM198.095 64.0318H200.657L200.689 49.4778L205.965 49.4884V47.2744L192.824 47.2481V49.462L198.127 49.4725L198.095 64.0318ZM185.059 49.4146L188.501 58.302L181.606 58.2861L185.059 49.4146ZM190.615 64.0108H193.435L186.683 47.227H183.478L176.651 63.9791H179.472L180.863 60.5159L189.245 60.5317L190.62 64.0055L190.615 64.0108ZM172.524 52.3507C172.524 54.1113 171.185 55.292 169.34 55.2868L165.034 55.2762L165.044 49.3935L169.351 49.404C171.196 49.404 172.524 50.5953 172.524 52.3507ZM172.292 63.9686H175.265L170.895 57.253C173.072 56.9789 175.154 55.3764 175.16 52.3559C175.165 49.2617 172.94 47.1953 169.688 47.1901L162.488 47.1743L162.451 63.9475H165.012L165.028 57.4902H168.233L172.292 63.9686ZM156.599 55.5609C156.589 59.2297 154.227 61.9919 150.617 61.9866C146.953 61.976 144.649 59.2086 144.66 55.5345C144.671 51.8394 146.979 49.1036 150.643 49.1088C154.259 49.1194 156.61 51.8657 156.599 55.5609ZM142.019 55.5293C142.009 60.5106 145.509 64.2111 150.611 64.2269C155.714 64.2374 159.23 60.5475 159.24 55.5714C159.251 50.5901 155.751 46.8896 150.648 46.8738C145.546 46.8633 142.03 50.5532 142.019 55.5293ZM138.361 52.2769C138.361 54.0375 137.048 55.2182 135.203 55.213L130.897 55.2024L130.907 49.3197L135.214 49.3302C137.059 49.3302 138.366 50.5215 138.361 52.2769ZM128.314 63.8737H130.876L130.891 57.4164L135.53 57.4269C139.014 57.4322 140.996 55.0759 141.002 52.2821C141.007 49.4884 139.067 47.1215 135.556 47.1163L128.356 47.1005L128.319 63.8737H128.314ZM122.932 52.2452C122.932 54.0059 121.593 55.1866 119.748 55.1814L115.441 55.1708L115.452 49.288L119.758 49.2986C121.603 49.2986 122.932 50.4899 122.932 52.2452ZM122.7 63.8632H125.673L121.303 57.1475C123.48 56.8734 125.562 55.271 125.567 52.2505C125.573 49.1563 123.348 47.0899 120.096 47.0846L112.895 47.0688L112.858 63.8421H115.42L115.436 57.3848H118.641L122.7 63.8632ZM108.035 55.4555C108.025 59.1243 105.663 61.8864 102.047 61.8812C98.3833 61.8706 96.0798 59.1032 96.0903 55.4291C96.1009 51.7339 98.4097 48.9981 102.073 49.0034C105.689 49.0139 108.04 51.7603 108.03 55.4555M93.4494 55.4238C93.4389 60.4052 96.939 64.1056 102.042 64.1215C107.144 64.132 110.66 60.4421 110.671 55.466C110.681 50.4846 107.181 46.7842 102.079 46.7684C96.9812 46.7578 93.46 50.4477 93.4494 55.4238ZM85.1788 64.0846C88.5366 64.0898 90.6135 62.5137 91.9787 60.5528L89.8017 59.4142C88.9003 60.8216 87.2082 61.8495 85.184 61.8443C81.7261 61.839 79.0641 59.1401 79.0746 55.3922C79.0851 51.618 81.7524 48.9612 85.2157 48.9665C87.2398 48.9665 88.9319 50.0049 89.8228 51.4177L92.0051 50.2896C90.6767 48.3234 88.5787 46.7367 85.2209 46.7262C80.3503 46.7157 76.4495 50.2263 76.439 55.3817C76.4284 60.537 80.3134 64.0688 85.184 64.0793" fill="black"/>
<path d="M221.7 7.00701H222.691L222.707 0.539136H221.294L219.365 5.17787L217.457 0.528593H216.044L216.028 6.99647H217.019L217.03 1.85696L219.154 7.00174H219.57L221.716 1.8675L221.705 7.01228L221.7 7.00701ZM212.317 6.98593H213.308L213.319 1.372H215.353V0.523322L210.282 0.51278V1.36673H212.328L212.317 6.98593Z" fill="black"/>
<path d="M30.642 38.7718L26.5673 34.1383V34.0856L15.0495 21.1762C15.039 21.1657 15.0337 21.1552 15.0232 21.1446C14.5699 20.6175 14.1218 20.1483 13.6685 19.6265C13.2309 19.1204 12.7249 18.5353 12.2768 18.0556C12.0607 17.829 11.755 17.4705 11.7497 17.4653C10.6955 16.664 9.2722 16.4215 7.85423 16.4163C3.52649 16.4057 0.0105426 19.9164 0 24.2494C0 24.8609 0.0685274 25.4565 0.20031 26.0258C0.426975 27.2962 0.959374 28.4612 1.72898 29.4311C1.99255 29.9319 3.25766 32.441 3.47378 35.0608C3.63192 36.9954 3.16278 38.9985 2.82541 40.1371C2.36681 41.1334 2.10852 42.2456 2.10325 43.4158C2.0927 47.7541 5.59284 51.2753 9.92057 51.2859C11.1962 51.2859 12.4033 50.9854 13.4734 50.4425C13.484 50.4425 13.4945 50.4425 13.505 50.4425C15.3605 49.52 18.2598 47.907 20.5475 45.7615C24.1741 42.351 26.5831 41.0016 26.5831 41.0016L26.5304 64.385L30.5946 64.3956L30.6526 38.7771L30.642 38.7718Z" fill="#00734E"/>
<path d="M34.079 1.0241C32.8824 1.5196 30.6895 2.28393 28.5019 2.32083C25.2654 2.37882 22.0341 0.971383 22.0341 0.971383H21.955C17.8908 -0.942096 14.4118 0.317742 12.0291 3.41199C10.3476 5.59958 9.93644 8.37228 10.685 10.8287C10.685 10.8287 34.2476 38.5873 40.3887 45.2397C40.5943 45.4822 40.7313 45.6403 40.784 45.6983C43.5093 48.5184 45.7443 49.7308 46.7564 50.1789C49.7874 51.7339 53.5933 51.249 56.134 48.7082C58.464 46.3836 59.0807 42.9783 57.979 40.0844C57.6627 38.8878 57.2094 36.7055 57.4466 34.6233C57.7945 31.5396 59.534 28.6404 59.534 28.6404L59.5446 28.5613C61.4633 25.5303 61.1101 21.4714 58.4745 18.82C56.2553 16.5849 53.024 15.9682 50.246 16.9803H50.2355C50.1775 17.0067 50.1142 17.0277 50.0562 17.0541C49.9666 17.091 49.8717 17.1279 49.7821 17.1701C46.2082 18.6777 43.2668 20.8231 40.7366 23.6327C40.0092 24.4392 38.101 26.5424 36.6935 28.1712C36.8095 28.0131 36.9044 27.8444 36.9782 27.6652C41.4377 20.8916 45.7918 12.1676 46.0448 11.3031C47.2414 7.9453 46.2135 4.05509 43.2457 1.76208C41.9595 0.771074 40.4783 0.207045 38.976 0.0489064L38.9654 0.0278218C38.9075 0.0278218 38.8495 0.0278218 38.7862 0.0278218C37.1627 -0.103961 35.5233 0.233403 34.079 1.01883V1.0241Z" fill="#009A76"/>
</g>
</svg>
